<svg xmlns="http://www.w3.org/2000/svg" width="1600" height="420" viewBox="0 0 1600 420" role="img" aria-labelledby="title desc">
  <title id="title">ADAM OS public desktop</title>
  <desc id="desc">Dark vaporwave command-center banner for the GitHub profile of adamllll.</desc>
  <defs>
    <linearGradient id="bg" x1="0" y1="0" x2="1" y2="1">
      <stop offset="0" stop-color="#070b12"/>
      <stop offset="0.42" stop-color="#14102a"/>
      <stop offset="0.78" stop-color="#1a0a2e"/>
      <stop offset="1" stop-color="#0b1020"/>
    </linearGradient>
    <linearGradient id="horizon" x1="0" y1="0" x2="0" y2="1">
      <stop offset="0" stop-color="#00d8ff" stop-opacity="0"/>
      <stop offset="0.55" stop-color="#7c3aed" stop-opacity="0.35"/>
      <stop offset="1" stop-color="#ff6ad5" stop-opacity="0.55"/>
    </linearGradient>
    <linearGradient id="titleFill" x1="0" y1="0" x2="1" y2="0">
      <stop offset="0" stop-color="#f8f7ff"/>
      <stop offset="0.55" stop-color="#00d8ff"/>
      <stop offset="1" stop-color="#ff6ad5"/>
    </linearGradient>
    <linearGradient id="windowChrome" x1="0" y1="0" x2="0" y2="1">
      <stop offset="0" stop-color="#f5f5f5"/>
      <stop offset="0.48" stop-color="#d0d0d0"/>
      <stop offset="1" stop-color="#9a9a9a"/>
    </linearGradient>
    <linearGradient id="titlebar" x1="0" y1="0" x2="1" y2="0">
      <stop offset="0" stop-color="#000080"/>
      <stop offset="0.55" stop-color="#7b2cbf"/>
      <stop offset="1" stop-color="#00d8ff"/>
    </linearGradient>
    <linearGradient id="scan" x1="0" y1="0" x2="0" y2="1">
      <stop offset="0" stop-color="#ffffff" stop-opacity="0.08"/>
      <stop offset="0.5" stop-color="#ffffff" stop-opacity="0"/>
      <stop offset="1" stop-color="#ffffff" stop-opacity="0.05"/>
    </linearGradient>
    <pattern id="grid" width="56" height="56" patternUnits="userSpaceOnUse">
      <path d="M56 0H0V56" fill="none" stroke="#7c3aed" stroke-opacity="0.18" stroke-width="1"/>
    </pattern>
    <pattern id="dots" width="18" height="18" patternUnits="userSpaceOnUse">
      <circle cx="1.5" cy="1.5" r="1.2" fill="#00d8ff" fill-opacity="0.18"/>
    </pattern>
    <filter id="softGlow" x="-20%" y="-40%" width="140%" height="180%">
      <feGaussianBlur stdDeviation="6" result="blur"/>
      <feMerge>
        <feMergeNode in="blur"/>
        <feMergeNode in="SourceGraphic"/>
      </feMerge>
    </filter>
  </defs>

  <!-- canvas -->
  <rect width="1600" height="420" fill="url(#bg)"/>
  <rect width="1600" height="420" fill="url(#dots)"/>
  <rect width="1600" height="420" fill="url(#grid)" opacity="0.9"/>
  <rect y="220" width="1600" height="200" fill="url(#horizon)"/>
  <rect width="1600" height="420" fill="url(#scan)"/>

  <!-- perspective floor lines -->
  <g opacity="0.55" stroke="#00d8ff" stroke-width="1.2">
    <path d="M0 320 L800 250 L1600 320" fill="none"/>
    <path d="M80 420 L800 250 L1520 420" fill="none" stroke-opacity="0.35"/>
    <path d="M240 420 L800 250 L1360 420" fill="none" stroke-opacity="0.25"/>
    <path d="M420 420 L800 250 L1180 420" fill="none" stroke-opacity="0.2"/>
  </g>

  <!-- distant mountain silhouettes -->
  <path d="M0 280 L180 210 L320 250 L470 180 L620 240 L760 160 L930 230 L1100 150 L1280 220 L1450 170 L1600 230 L1600 420 L0 420 Z" fill="#0b1020" opacity="0.72"/>
  <path d="M0 310 L220 250 L380 290 L560 220 L740 280 L920 210 L1120 270 L1320 200 L1600 260 L1600 420 L0 420 Z" fill="#14102a" opacity="0.85"/>

  <!-- left Win95 window -->
  <g transform="translate(72 68)">
    <rect width="420" height="236" fill="#c0c0c0"/>
    <path d="M0 0H420V236H0Z" fill="none" stroke="#ffffff" stroke-width="3"/>
    <path d="M3 233H420V0" fill="none" stroke="#222222" stroke-width="3"/>
    <rect x="10" y="10" width="400" height="28" fill="url(#titlebar)"/>
    <text x="24" y="30" fill="#ffffff" font-family="Consolas, 'Courier New', monospace" font-size="15" font-weight="700">PROFILE.EXE</text>
    <g transform="translate(352 14)">
      <rect width="18" height="18" fill="#c0c0c0" stroke="#ffffff"/>
      <path d="M1 17H18V1" fill="none" stroke="#222" stroke-width="1.5"/>
      <path d="M4 9H14" stroke="#111" stroke-width="2"/>
      <rect x="24" width="18" height="18" fill="#c0c0c0" stroke="#ffffff"/>
      <path d="M25 17H42V1" fill="none" stroke="#222" stroke-width="1.5"/>
      <rect x="29" y="5" width="8" height="7" fill="none" stroke="#111" stroke-width="1.5"/>
    </g>
    <rect x="18" y="52" width="384" height="164" fill="#050816" stroke="#222" stroke-width="2"/>
    <text x="36" y="88" fill="#72f1b8" font-family="Consolas, 'Courier New', monospace" font-size="16" font-weight="700">C:\ADAM_OS&gt; boot profile.exe</text>
    <text x="36" y="122" fill="#f8f7ff" font-family="Consolas, 'Courier New', monospace" font-size="14">surface   public desktop card</text>
    <text x="36" y="150" fill="#f8f7ff" font-family="Consolas, 'Courier New', monospace" font-size="14">lanes     systems · interfaces</text>
    <text x="36" y="178" fill="#f8f7ff" font-family="Consolas, 'Courier New', monospace" font-size="14">          tools · AI build loops</text>
    <text x="36" y="206" fill="#00d8ff" font-family="Consolas, 'Courier New', monospace" font-size="14">policy    signal over scoreboard</text>
  </g>

  <!-- main title block -->
  <g transform="translate(540 78)">
    <text x="0" y="0" fill="#72f1b8" font-family="Consolas, 'Courier New', monospace" font-size="17" letter-spacing="3">PUBLIC DESKTOP // ONLINE</text>
    <text x="0" y="74" fill="url(#titleFill)" font-family="Consolas, 'Courier New', monospace" font-size="84" font-weight="700" filter="url(#softGlow)">ADAM_OS</text>
    <text x="2" y="118" fill="#cfc9ff" font-family="Consolas, 'Courier New', monospace" font-size="18">systems · interfaces · tools · AI loops</text>
    <g transform="translate(2 148)" font-family="Consolas, 'Courier New', monospace" font-size="14">
      <rect width="120" height="32" rx="4" fill="#111827" stroke="#00d8ff"/>
      <text x="14" y="21" fill="#00d8ff">HOME BASE</text>
      <rect x="132" width="136" height="32" rx="4" fill="#111827" stroke="#ff6ad5"/>
      <text x="148" y="21" fill="#ff6ad5">PUBLIC TRACE</text>
      <rect x="280" width="136" height="32" rx="4" fill="#111827" stroke="#72f1b8"/>
      <text x="298" y="21" fill="#72f1b8">NO TROPHIES</text>
    </g>
  </g>

  <!-- right status panel -->
  <g transform="translate(1210 78)">
    <rect width="318" height="248" fill="#0b1020" stroke="#00d8ff" stroke-width="2" opacity="0.96"/>
    <rect x="0" y="0" width="318" height="36" fill="#14102a"/>
    <text x="16" y="24" fill="#00d8ff" font-family="Consolas, 'Courier New', monospace" font-size="15" font-weight="700">SIGNAL BUS</text>
    <text x="16" y="70" fill="#ff6ad5" font-family="Consolas, 'Courier New', monospace" font-size="14">TRACE   PUBLIC ONLY</text>
    <text x="16" y="102" fill="#72f1b8" font-family="Consolas, 'Courier New', monospace" font-size="14">STATUS  ONLINE</text>
    <text x="16" y="134" fill="#f8f7ff" font-family="Consolas, 'Courier New', monospace" font-size="14">WINDOW  last 31 days</text>
    <text x="16" y="166" fill="#f8f7ff" font-family="Consolas, 'Courier New', monospace" font-size="14">PRIVATE native calendar</text>
    <text x="16" y="198" fill="#cfc9ff" font-family="Consolas, 'Courier New', monospace" font-size="14">MODE    rhythm not score</text>
    <path d="M24 224 H294" stroke="#7c3aed" stroke-width="2" stroke-dasharray="6 6"/>
    <circle cx="44" cy="224" r="5" fill="#00d8ff"/>
    <circle cx="116" cy="224" r="5" fill="#ff6ad5"/>
    <circle cx="188" cy="224" r="5" fill="#72f1b8"/>
    <circle cx="260" cy="224" r="5" fill="#7c3aed"/>
  </g>

  <!-- bottom strip -->
  <rect y="392" width="1600" height="28" fill="#050816"/>
  <rect y="392" width="180" height="28" fill="#00d8ff"/>
  <rect x="180" y="392" width="180" height="28" fill="#ff6ad5"/>
  <rect x="360" y="392" width="180" height="28" fill="#7c3aed"/>
  <text x="560" y="411" fill="#cfc9ff" font-family="Consolas, 'Courier New', monospace" font-size="14">adamllll · public desktop card · home base behind the door</text>
</svg>
