<svg xmlns="http://www.w3.org/2000/svg" width="1600" height="420" viewBox="0 0 1600 420" role="img" aria-labelledby="title desc">
  <title id="title">ADAM OS profile — warm commit pulse</title>
  <desc id="desc">A GitHub-safe profile banner generated from real contribution activity: 237 contributions in the last year, 2 in the last seven days.</desc>
  <metadata>source=github-graphql; user=adamllll; window=rolling-year</metadata>
  <defs>
    <linearGradient id="bg" x1="0" y1="0" x2="1" y2="1">
      <stop offset="0" stop-color="#070b12"/>
      <stop offset="0.42" stop-color="#14102a"/>
      <stop offset="0.78" stop-color="#1a0a2e"/>
      <stop offset="1" stop-color="#0b1020"/>
    </linearGradient>
    <linearGradient id="horizon" x1="0" y1="0" x2="0" y2="1">
      <stop offset="0" stop-color="#00d8ff" stop-opacity="0"/>
      <stop offset="0.55" stop-color="#7c3aed" stop-opacity="0.35"/>
      <stop offset="1" stop-color="#ff6ad5" stop-opacity="0.55"/>
    </linearGradient>
    <linearGradient id="titleFill" x1="0" y1="0" x2="1" y2="0">
      <stop offset="0" stop-color="#f8f7ff"/>
      <stop offset="0.55" stop-color="#00d8ff"/>
      <stop offset="1" stop-color="#ff6ad5"/>
    </linearGradient>
    <linearGradient id="titlebar" x1="0" y1="0" x2="1" y2="0">
      <stop offset="0" stop-color="#000080"/>
      <stop offset="0.55" stop-color="#7b2cbf"/>
      <stop offset="1" stop-color="#00d8ff"/>
    </linearGradient>
    <linearGradient id="scan" x1="0" y1="0" x2="0" y2="1">
      <stop offset="0" stop-color="#ffffff" stop-opacity="0.08"/>
      <stop offset="0.5" stop-color="#ffffff" stop-opacity="0"/>
      <stop offset="1" stop-color="#ffffff" stop-opacity="0.05"/>
    </linearGradient>
    <pattern id="grid" width="56" height="56" patternUnits="userSpaceOnUse">
      <path d="M56 0H0V56" fill="none" stroke="#7c3aed" stroke-opacity="0.18" stroke-width="1"/>
    </pattern>
    <pattern id="dots" width="18" height="18" patternUnits="userSpaceOnUse">
      <circle cx="1.5" cy="1.5" r="1.2" fill="#00d8ff" fill-opacity="0.18"/>
    </pattern>
    <filter id="softGlow" x="-20%" y="-40%" width="140%" height="180%">
      <feGaussianBlur stdDeviation="6" result="blur"/>
      <feMerge><feMergeNode in="blur"/><feMergeNode in="SourceGraphic"/></feMerge>
    </filter>
  </defs>

  <rect width="1600" height="420" fill="url(#bg)"/>
  <rect width="1600" height="420" fill="url(#dots)"/>
  <rect width="1600" height="420" fill="url(#grid)" opacity="0.9"/>
  <rect y="220" width="1600" height="200" fill="url(#horizon)"/>
  <rect width="1600" height="420" fill="url(#scan)"/>

  <g opacity="0.55" stroke="#00d8ff" stroke-width="1.2">
    <path d="M0 320 L800 250 L1600 320" fill="none"/>
    <path d="M80 420 L800 250 L1520 420" fill="none" stroke-opacity="0.35"/>
    <path d="M240 420 L800 250 L1360 420" fill="none" stroke-opacity="0.25"/>
    <path d="M420 420 L800 250 L1180 420" fill="none" stroke-opacity="0.2"/>
  </g>
  <path d="M0 280 L180 210 L320 250 L470 180 L620 240 L760 160 L930 230 L1100 150 L1280 220 L1450 170 L1600 230 L1600 420 L0 420 Z" fill="#0b1020" opacity="0.72"/>
  <path d="M0 310 L220 250 L380 290 L560 220 L740 280 L920 210 L1120 270 L1320 200 L1600 260 L1600 420 L0 420 Z" fill="#14102a" opacity="0.85"/>

  <g transform="translate(72 68)">
    <rect width="420" height="236" fill="#c0c0c0"/>
    <path d="M0 0H420V236H0Z" fill="none" stroke="#ffffff" stroke-width="3"/>
    <path d="M3 233H420V0" fill="none" stroke="#222222" stroke-width="3"/>
    <rect x="10" y="10" width="400" height="28" fill="url(#titlebar)"/>
    <text x="24" y="30" fill="#ffffff" font-family="Consolas, 'Courier New', monospace" font-size="15" font-weight="700">PROFILE.EXE</text>
    <g transform="translate(352 14)">
      <rect width="18" height="18" fill="#c0c0c0" stroke="#ffffff"/>
      <path d="M1 17H18V1" fill="none" stroke="#222" stroke-width="1.5"/>
      <path d="M4 9H14" stroke="#111" stroke-width="2"/>
      <rect x="24" width="18" height="18" fill="#c0c0c0" stroke="#ffffff"/>
      <path d="M25 17H42V1" fill="none" stroke="#222" stroke-width="1.5"/>
      <rect x="29" y="5" width="8" height="7" fill="none" stroke="#111" stroke-width="1.5"/>
    </g>
    <rect x="18" y="52" width="384" height="164" fill="#050816" stroke="#222" stroke-width="2"/>
    <text x="36" y="88" fill="#72f1b8" font-family="Consolas, 'Courier New', monospace" font-size="16" font-weight="700">C:\ADAM_OS&gt; boot profile.exe</text>
    <text x="36" y="122" fill="#f8f7ff" font-family="Consolas, 'Courier New', monospace" font-size="14">surface   public desktop card</text>
    <text x="36" y="150" fill="#f8f7ff" font-family="Consolas, 'Courier New', monospace" font-size="14">lanes     systems · interfaces</text>
    <text x="36" y="178" fill="#f8f7ff" font-family="Consolas, 'Courier New', monospace" font-size="14">          tools · AI build loops</text>
    <text x="36" y="206" fill="#00d8ff" font-family="Consolas, 'Courier New', monospace" font-size="14">policy    real rhythm drives chrome</text>
  </g>

  <g transform="translate(540 78)">
    <text x="0" y="0" fill="#00d8ff" font-family="Consolas, 'Courier New', monospace" font-size="17" letter-spacing="3">PUBLIC DESKTOP // WARM</text>
    <text x="0" y="74" fill="url(#titleFill)" font-family="Consolas, 'Courier New', monospace" font-size="84" font-weight="700" filter="url(#softGlow)">ADAM_OS</text>
    <text x="2" y="118" fill="#cfc9ff" font-family="Consolas, 'Courier New', monospace" font-size="18">systems · interfaces · tools · AI loops</text>
    <g transform="translate(2 148)" font-family="Consolas, 'Courier New', monospace" font-size="14">
      <rect width="120" height="32" rx="4" fill="#111827" stroke="#00d8ff"/>
      <text x="14" y="21" fill="#00d8ff">HOME BASE</text>
      <rect x="132" width="136" height="32" rx="4" fill="#111827" stroke="#00d8ff"/>
      <text x="148" y="21" fill="#00d8ff">LIVE PULSE</text>
      <rect x="280" width="136" height="32" rx="4" fill="#111827" stroke="#ff6ad5"/>
      <text x="298" y="21" fill="#ff6ad5">NO TROPHIES</text>
    </g>
  </g>

  <g transform="translate(1210 66)">
    <rect width="318" height="272" fill="#0b1020" stroke="#00d8ff" stroke-width="2" opacity="0.97"/>
    <rect width="318" height="36" fill="#14102a"/>
    <circle cx="292" cy="18" r="5" fill="#00d8ff"/>
    <text x="16" y="24" fill="#00d8ff" font-family="Consolas, 'Courier New', monospace" font-size="15" font-weight="700">COMMIT PULSE // WARM</text>
    <g font-family="Consolas, 'Courier New', monospace">
      <text x="18" y="72" fill="#7780a1" font-size="12">ROLLING YEAR</text>
      <text x="18" y="105" fill="#f8f7ff" font-size="30" font-weight="700">237</text>
      <text x="124" y="72" fill="#7780a1" font-size="12">LAST 30D</text>
      <text x="124" y="105" fill="#00d8ff" font-size="30" font-weight="700">2</text>
      <text x="224" y="72" fill="#7780a1" font-size="12">LAST 7D</text>
      <text x="224" y="105" fill="#00d8ff" font-size="30" font-weight="700">2</text>
      <text x="18" y="136" fill="#cfc9ff" font-size="12">ACTIVE 74D</text>
      <text x="124" y="136" fill="#cfc9ff" font-size="12">PEAK 17/DAY</text>
      <text x="224" y="136" fill="#cfc9ff" font-size="12">28D TRACE</text>
      <polyline points="21,220 31,220 41,220 51,220 61,220 71,220 81,220 91,220 101,220 111,220 121,220 131,220 141,220 151,220 161,220 171,220 181,220 191,220 201,220 211,220 221,220 231,220 241,220 251,220 261,220 271,220 281,180 291,220" fill="none" stroke="#00d8ff" stroke-width="1.5" stroke-opacity="0.42"/>
      <rect x="18" y="224" width="6" height="4" rx="2" fill="#2a2346"/>
      <rect x="28" y="224" width="6" height="4" rx="2" fill="#2a2346"/>
      <rect x="38" y="224" width="6" height="4" rx="2" fill="#2a2346"/>
      <rect x="48" y="224" width="6" height="4" rx="2" fill="#2a2346"/>
      <rect x="58" y="224" width="6" height="4" rx="2" fill="#2a2346"/>
      <rect x="68" y="224" width="6" height="4" rx="2" fill="#2a2346"/>
      <rect x="78" y="224" width="6" height="4" rx="2" fill="#2a2346"/>
      <rect x="88" y="224" width="6" height="4" rx="2" fill="#2a2346"/>
      <rect x="98" y="224" width="6" height="4" rx="2" fill="#2a2346"/>
      <rect x="108" y="224" width="6" height="4" rx="2" fill="#2a2346"/>
      <rect x="118" y="224" width="6" height="4" rx="2" fill="#2a2346"/>
      <rect x="128" y="224" width="6" height="4" rx="2" fill="#2a2346"/>
      <rect x="138" y="224" width="6" height="4" rx="2" fill="#2a2346"/>
      <rect x="148" y="224" width="6" height="4" rx="2" fill="#2a2346"/>
      <rect x="158" y="224" width="6" height="4" rx="2" fill="#2a2346"/>
      <rect x="168" y="224" width="6" height="4" rx="2" fill="#2a2346"/>
      <rect x="178" y="224" width="6" height="4" rx="2" fill="#2a2346"/>
      <rect x="188" y="224" width="6" height="4" rx="2" fill="#2a2346"/>
      <rect x="198" y="224" width="6" height="4" rx="2" fill="#2a2346"/>
      <rect x="208" y="224" width="6" height="4" rx="2" fill="#2a2346"/>
      <rect x="218" y="224" width="6" height="4" rx="2" fill="#2a2346"/>
      <rect x="228" y="224" width="6" height="4" rx="2" fill="#2a2346"/>
      <rect x="238" y="224" width="6" height="4" rx="2" fill="#2a2346"/>
      <rect x="248" y="224" width="6" height="4" rx="2" fill="#2a2346"/>
      <rect x="258" y="224" width="6" height="4" rx="2" fill="#2a2346"/>
      <rect x="268" y="224" width="6" height="4" rx="2" fill="#2a2346"/>
      <rect x="278" y="184" width="6" height="44" rx="2" fill="#72f1b8"/>
      <rect x="288" y="224" width="6" height="4" rx="2" fill="#2a2346"/>
      <text x="18" y="254" fill="#7780a1" font-size="11">generated from GitHub activity</text>
    </g>
  </g>

  <rect y="392" width="1600" height="28" fill="#050816"/>
  <rect y="392" width="180" height="28" fill="#00d8ff"/>
  <rect x="180" y="392" width="180" height="28" fill="#ff6ad5"/>
  <rect x="360" y="392" width="180" height="28" fill="#7c3aed"/>
  <text x="560" y="411" fill="#cfc9ff" font-family="Consolas, 'Courier New', monospace" font-size="14">adamllll · real activity in the chrome · public desktop online</text>
</svg>
